<?xml version="1.0" encoding="UTF-8" standalone="no"?>
<!-- Generator: Adobe Illustrator 17.0.0, SVG Export Plug-In . SVG Version: 6.00 Build 0)  -->

<svg
   xmlns:dc="http://purl.org/dc/elements/1.1/"
   xmlns:cc="http://creativecommons.org/ns#"
   xmlns:rdf="http://www.w3.org/1999/02/22-rdf-syntax-ns#"
   xmlns:svg="http://www.w3.org/2000/svg"
   xmlns="http://www.w3.org/2000/svg"
   xmlns:xlink="http://www.w3.org/1999/xlink"
   xmlns:sodipodi="http://sodipodi.sourceforge.net/DTD/sodipodi-0.dtd"
   xmlns:inkscape="http://www.inkscape.org/namespaces/inkscape"
   version="1.1"
   id="svg2"
   x="0px"
   y="0px"
   width="1792px"
   height="1792px"
   viewBox="0 0 1792 1792"
   enable-background="new 0 0 1792 1792"
   xml:space="preserve"
   inkscape:version="0.48.2 r9819"
   sodipodi:docname="icon.svg"><metadata
   id="metadata10"><rdf:RDF><cc:Work
       rdf:about=""><dc:format>image/svg+xml</dc:format><dc:type
         rdf:resource="http://purl.org/dc/dcmitype/StillImage" /><dc:title /></cc:Work></rdf:RDF></metadata><defs
   id="defs8"><mask
     id="mask4351"
     maskUnits="userSpaceOnUse"><path
       inkscape:connector-curvature="0"
       id="path4353"
       d="m -23774.581,-14321.461 c -195.532,0.381 -367.974,143.603 -367.093,324.063 l 1.028,211.553 c 0,0 -1.372,39.915 148.628,103.978 164.022,51.336 459.062,4.781 459.062,4.781 156.25,-54.688 145.832,-102.128 145.832,-102.128 l 0.418,-221.684 c 0.349,-183.327 -179.218,-316.253 -378.562,-320.5 -3.115,-0.07 -6.209,-0.07 -9.313,-0.06 z m 13.844,111.437 c 2.068,0 4.116,0.02 6.187,0.06 132.584,2.826 241.701,103.998 239.5,225.906 -0.966,53.491 -5.883,124.716 -41,162.188 -44.918,47.924 -149.092,54.585 -223.5,53 -61.408,-1.309 -141.27,-5.688 -183.093,-41.469 -48.474,-41.47 -54.182,-118.932 -53,-184.375 2.166,-120.003 124.615,-215.065 254.906,-215.313 z"
       style="fill:#4d4d4d;fill-opacity:0.98550726;stroke:none;filter:url(#filter4300)"
       sodipodi:nodetypes="ccccccccccccscccccc" /></mask><filter
     id="filter4300"
     inkscape:collect="always"><feGaussianBlur
       id="feGaussianBlur4302"
       stdDeviation="17.896353"
       inkscape:collect="always" /></filter><linearGradient
     gradientUnits="userSpaceOnUse"
     y2="-14331.805"
     x2="-23686.705"
     y1="-13581.805"
     x1="-23685.428"
     id="linearGradient4277"
     xlink:href="#linearGradient4271"
     inkscape:collect="always" /><linearGradient
     id="linearGradient4271"><stop
       id="stop4273"
       offset="0"
       style="stop-color:#f7ffff;stop-opacity:1;" /><stop
       id="stop4275"
       offset="1"
       style="stop-color:#8bc4c4;stop-opacity:0.99145299;" /></linearGradient></defs><sodipodi:namedview
   pagecolor="#ffffff"
   bordercolor="#666666"
   borderopacity="1"
   objecttolerance="10"
   gridtolerance="10"
   guidetolerance="10"
   inkscape:pageopacity="0"
   inkscape:pageshadow="2"
   inkscape:window-width="1440"
   inkscape:window-height="856"
   id="namedview6"
   showgrid="false"
   showguides="true"
   inkscape:guide-bbox="true"
   inkscape:zoom="0.18624688"
   inkscape:cx="1125.84"
   inkscape:cy="788.61565"
   inkscape:window-x="0"
   inkscape:window-y="0"
   inkscape:window-maximized="0"
   inkscape:current-layer="layer1" />
<g
   id="g10"
   transform="matrix(1.25,0,0,-1.25,0,1792)">
	
	
<g
   id="layer1"
   inkscape:label="Layer 1"
   transform="matrix(79.160142,0,0,-79.160142,-36838.033,28533.636)"><text
   sodipodi:linespacing="125%"
   id="text2998"
   y="98.076469"
   x="-551.42859"
   style="font-size:40px;font-style:normal;font-variant:normal;font-weight:normal;font-stretch:normal;line-height:125%;letter-spacing:0px;word-spacing:0px;fill:#000000;fill-opacity:1;stroke:none;font-family:Paytone One;-inkscape-font-specification:Paytone One"
   xml:space="preserve"><tspan
     y="98.076469"
     x="-551.42859"
     id="tspan3000"
     sodipodi:role="line" /></text>

<text
   sodipodi:linespacing="125%"
   id="text3280"
   y="5497.0332"
   x="-1454.6198"
   style="font-size:40px;font-style:normal;font-variant:normal;font-weight:normal;font-stretch:normal;line-height:125%;letter-spacing:0px;word-spacing:0px;fill:#000000;fill-opacity:1;stroke:none;font-family:Paytone One;-inkscape-font-specification:Paytone One"
   xml:space="preserve"><tspan
     y="5497.0332"
     x="-1454.6198"
     id="tspan3282"
     sodipodi:role="line" /></text>

<text
   sodipodi:linespacing="125%"
   id="text3300"
   y="-6964.0439"
   x="-6890.625"
   style="font-size:40px;font-style:normal;font-weight:normal;line-height:125%;letter-spacing:0px;word-spacing:0px;fill:#000000;fill-opacity:1;stroke:none;font-family:Sans"
   xml:space="preserve"><tspan
     y="-6964.0439"
     x="-6890.625"
     id="tspan3302"
     sodipodi:role="line" /></text>

<path
   style="fill:#000000;fill-opacity:1"
   d="m 469.9323,347.99641 c 0,0.93828 -0.71257,1.69937 -1.59184,1.69937 -0.87911,0 -1.59168,-0.76109 -1.59168,-1.69937 0,-0.93828 0.71257,-1.69937 1.59168,-1.69937 0.87927,0 1.59184,0.76109 1.59184,1.69937 z"
   id="path3395"
   inkscape:connector-curvature="0" /><path
   sodipodi:nodetypes="ccccccccccccccsccccccc"
   inkscape:connector-curvature="0"
   id="path3397"
   d="m 472.28061,358.48077 0,-0.0308 c 0.0277,0.0308 0.057,0.0771 0.0879,0.12325 0.96878,1.0677 4.09191,0.77034 4.93482,-0.10785 0.96954,1.22485 4.482,0.91363 5.17069,0 l -0.33064,-1.99365 c -2.27774,1.02456 -2.30039,0 -2.29654,-1.81184 0,-1.23717 -0.0277,-2.81945 -0.0277,-4.05662 l -3.26486,0 c 0.0262,1.29418 0.0262,4.35243 0.0262,5.6651 0,0.12325 0,0.2465 0.0262,0.36668 -1.86408,0.5038 -1.67765,-0.59317 -1.66564,-1.96591 l -0.0262,-4.06587 -3.26487,0 c 0,1.29263 0.0262,4.36014 0.0262,5.6651 0,0.0924 0,0.19567 0,0.29273 -1.71647,0.47298 -1.71725,-0.51922 -1.69167,-1.84728 l -0.0262,-4.10747 -3.26487,0 c 0,1.31883 0,4.58816 0,5.73751 -0.0262,3.01512 3.56545,3.5559 5.5893,2.14771 z"
   style="font-size:40px;font-style:normal;font-variant:normal;font-weight:normal;font-stretch:normal;line-height:125%;letter-spacing:0px;word-spacing:0px;fill:#000000;fill-opacity:1;stroke:none;font-family:Paytone One;-inkscape-font-specification:Paytone One" /><path
   style="fill:#000000;fill-opacity:1"
   d="m 474.89377,347.99641 c 0,0.93828 -0.71288,1.69937 -1.59199,1.69937 -0.87911,0 -1.59199,-0.76109 -1.59199,-1.69937 0,-0.93828 0.71288,-1.69937 1.59199,-1.69937 0.87911,0 1.59199,0.76109 1.59199,1.69937 z"
   id="path3399"
   inkscape:connector-curvature="0" /><path
   style="fill:#000000;fill-opacity:1"
   d="m 479.71056,347.99641 c 0,0.93828 -0.71256,1.69937 -1.59183,1.69937 -0.87912,0 -1.59199,-0.76109 -1.59199,-1.69937 0,-0.93828 0.71287,-1.69937 1.59199,-1.69937 0.87927,0 1.59183,0.76109 1.59183,1.69937 z"
   id="path3401"
   inkscape:connector-curvature="0" /><text
   sodipodi:linespacing="125%"
   id="text3438"
   y="-7270.001"
   x="-8070.5396"
   style="font-size:6.52291918px;font-style:normal;font-variant:normal;font-weight:normal;font-stretch:normal;line-height:125%;letter-spacing:0px;word-spacing:0px;fill:#9f9f9f;fill-opacity:1;stroke:none;font-family:Paytone One;-inkscape-font-specification:Paytone One"
   xml:space="preserve"><tspan
     y="-7270.001"
     x="-8070.5396"
     id="tspan3440"
     sodipodi:role="line" /></text>

<text
   sodipodi:linespacing="125%"
   id="text4279"
   y="-7302.7158"
   x="-8071.0938"
   style="font-size:40px;font-style:normal;font-variant:normal;font-weight:normal;font-stretch:normal;line-height:125%;letter-spacing:0px;word-spacing:0px;fill:#000000;fill-opacity:1;stroke:none;font-family:helvetica;-inkscape-font-specification:helvetica"
   xml:space="preserve"><tspan
     y="-7302.7158"
     x="-8071.0938"
     id="tspan4281"
     sodipodi:role="line" /></text>

<text
   sodipodi:linespacing="125%"
   id="text4283"
   y="-7373.4189"
   x="-8089.8438"
   style="font-size:40px;font-style:normal;font-variant:normal;font-weight:normal;font-stretch:normal;line-height:125%;letter-spacing:0px;word-spacing:0px;fill:#000000;fill-opacity:1;stroke:none;font-family:Sans;-inkscape-font-specification:Helvetica"
   xml:space="preserve"><tspan
     y="-7373.4189"
     x="-8089.8438"
     id="tspan4285"
     sodipodi:role="line" /></text>

<text
   sodipodi:linespacing="125%"
   id="text4287"
   y="-7173.1802"
   x="-8135.8213"
   style="font-size:14.76955509px;font-style:normal;font-variant:normal;font-weight:normal;font-stretch:normal;line-height:125%;letter-spacing:0px;word-spacing:0px;fill:#000000;fill-opacity:1;stroke:none;font-family:Sans;-inkscape-font-specification:Helvetica"
   xml:space="preserve"><tspan
     y="-7173.1802"
     x="-8135.8213"
     id="tspan4289"
     sodipodi:role="line" /></text>

<text
   xml:space="preserve"
   style="font-size:5.19718266px;font-style:normal;font-variant:normal;font-weight:normal;font-stretch:normal;line-height:125%;letter-spacing:0px;word-spacing:0px;fill:#b3b3b3;fill-opacity:1;stroke:none;font-family:Sans;-inkscape-font-specification:Helvetica"
   x="-8072.6655"
   y="-7261.5728"
   id="text4317"
   sodipodi:linespacing="125%"><tspan
     sodipodi:role="line"
     id="tspan4319"
     x="-8072.6655"
     y="-7261.5728" /></text>

</g></g>
</svg>